HIERARCHY
ROOT Hips
{
	OFFSET 0.000000 71.427986 0.000000
	CHANNELS 6 Xposition Yposition Zposition Xrotation Yrotation Zrotation
	JOINT Pelvis
	{
		OFFSET 0.000000 0.000000 0.000000
		CHANNELS 3 Xrotation Yrotation Zrotation
		JOINT LeftUpLeg
		{
			OFFSET 6.797100 -2.508499 -1.318700
			CHANNELS 3 Xrotation Yrotation Zrotation
			JOINT LeftLeg
			{
				OFFSET 0.069008 -29.241863 0.690200
				CHANNELS 3 Xrotation Yrotation Zrotation
				JOINT LeftFoot
				{
					OFFSET -0.069008 -29.568123 -0.266800
					CHANNELS 3 Xrotation Yrotation Zrotation
					JOINT LeftToeBase
					{
						OFFSET 3.145500 -8.631000 16.059900
						CHANNELS 3 Xrotation Yrotation Zrotation
						End Site
						{
							OFFSET 0.000000 18.501587 0.000000
						}
					}
				}
			}
			JOINT Left_ShortSleeve
			{
				OFFSET 0.265923 -10.480953 1.153800
				CHANNELS 3 Xrotation Yrotation Zrotation
				End Site
				{
					OFFSET 1.725763 19.823879 0.000000
				}
			}
		}
		JOINT RightUpLeg
		{
			OFFSET -6.797100 -2.508499 -1.318700
			CHANNELS 3 Xrotation Yrotation Zrotation
			JOINT RightLeg
			{
				OFFSET -0.082453 -29.241932 0.688000
				CHANNELS 3 Xrotation Yrotation Zrotation
				JOINT RightFoot
				{
					OFFSET 0.082453 -29.568058 -0.264600
					CHANNELS 3 Xrotation Yrotation Zrotation
					JOINT RightToeBase
					{
						OFFSET -3.115300 -8.682800 16.113400
						CHANNELS 3 Xrotation Yrotation Zrotation
						End Site
						{
							OFFSET 0.000000 18.567114 0.000000
						}
					}
				}
			}
			JOINT Right_ShortSleeve
			{
				OFFSET -0.265923 -10.480953 1.153800
				CHANNELS 3 Xrotation Yrotation Zrotation
				End Site
				{
					OFFSET -1.725766 19.823910 0.000000
				}
			}
		}
	}
	JOINT Spine
	{
		OFFSET 0.000000 13.368103 0.470500
		CHANNELS 3 Xrotation Yrotation Zrotation
		JOINT Spine1
		{
			OFFSET 0.147000 13.837402 0.538800
			CHANNELS 3 Xrotation Yrotation Zrotation
			JOINT Spine2
			{
				OFFSET 0.168000 16.242897 -1.435500
				CHANNELS 3 Xrotation Yrotation Zrotation
				JOINT Neck
				{
					OFFSET 0.217200 18.631500 -1.679100
					CHANNELS 3 Xrotation Yrotation Zrotation
					JOINT Head
					{
						OFFSET 0.000000 6.599396 1.385900
						CHANNELS 3 Xrotation Yrotation Zrotation
						JOINT Hat
						{
							OFFSET -0.532200 27.220596 -10.096100
							CHANNELS 3 Xrotation Yrotation Zrotation
							End Site
							{
								OFFSET 0.000000 22.029861 0.000000
							}
						}
						JOINT HairD
						{
							OFFSET -10.777400 17.437393 -1.325900
							CHANNELS 3 Xrotation Yrotation Zrotation
							JOINT HairD1
							{
								OFFSET -3.290299 -11.051193 1.062200
								CHANNELS 3 Xrotation Yrotation Zrotation
								End Site
								{
									OFFSET 0.000000 11.579437 0.000000
								}
							}
						}
						JOINT HairB
						{
							OFFSET -10.777400 17.437393 1.467900
							CHANNELS 3 Xrotation Yrotation Zrotation
							JOINT HairB1
							{
								OFFSET -1.561200 -12.956299 3.590200
								CHANNELS 3 Xrotation Yrotation Zrotation
								End Site
								{
									OFFSET 0.000000 13.534866 0.000000
								}
							}
						}
						JOINT HairA
						{
							OFFSET 9.713100 17.437393 1.467900
							CHANNELS 3 Xrotation Yrotation Zrotation
							JOINT HairA1
							{
								OFFSET 1.561200 -12.956299 3.590200
								CHANNELS 3 Xrotation Yrotation Zrotation
								End Site
								{
									OFFSET 0.000000 13.534866 0.000000
								}
							}
						}
						JOINT HairC
						{
							OFFSET 9.713100 17.437393 -1.325900
							CHANNELS 3 Xrotation Yrotation Zrotation
							JOINT HairC1
							{
								OFFSET 3.290300 -11.051193 1.062200
								CHANNELS 3 Xrotation Yrotation Zrotation
								End Site
								{
									OFFSET 0.000000 11.579437 0.000000
								}
							}
						}
					}
				}
				JOINT LeftShoulder
				{
					OFFSET 5.101800 15.108002 -2.763700
					CHANNELS 3 Xrotation Yrotation Zrotation
					JOINT LeftArm
					{
						OFFSET 9.825497 2.506317 -1.597400
						CHANNELS 3 Xrotation Yrotation Zrotation
						JOINT LeftForeArm
						{
							OFFSET 21.966244 0.000000 0.000000
							CHANNELS 3 Xrotation Yrotation Zrotation
							JOINT LeftHand
							{
								OFFSET 33.879036 0.000000 0.000000
								CHANNELS 3 Xrotation Yrotation Zrotation
								JOINT LeftHandThumb1
								{
									OFFSET 6.715286 -2.359680 3.363841
									CHANNELS 3 Xrotation Yrotation Zrotation
									JOINT LeftHandThumb2
									{
										OFFSET 2.507072 -1.447464 1.447461
										CHANNELS 3 Xrotation Yrotation Zrotation
										JOINT LeftHandThumb3
										{
											OFFSET 2.898338 -1.673355 1.673357
											CHANNELS 3 Xrotation Yrotation Zrotation
											End Site
											{
												OFFSET -0.295959 3.727692 -0.131651
											}
										}
									}
								}
								JOINT LeftHandIndex1
								{
									OFFSET 14.190811 -0.254547 3.840278
									CHANNELS 3 Xrotation Yrotation Zrotation
									JOINT LeftHandIndex2
									{
										OFFSET 3.551727 0.000000 -0.000000
										CHANNELS 3 Xrotation Yrotation Zrotation
										JOINT LeftHandIndex3
										{
											OFFSET 2.894196 0.000000 0.000000
											CHANNELS 3 Xrotation Yrotation Zrotation
											End Site
											{
												OFFSET -1.000603 2.690872 0.366626
											}
										}
									}
								}
								JOINT LeftHandMiddle1
								{
									OFFSET 13.776489 0.000000 0.000000
									CHANNELS 3 Xrotation Yrotation Zrotation
									JOINT LeftHandMiddle2
									{
										OFFSET 3.438232 0.000000 0.000000
										CHANNELS 3 Xrotation Yrotation Zrotation
										JOINT LeftHandMiddle3
										{
											OFFSET 3.691551 0.000000 0.000000
											CHANNELS 3 Xrotation Yrotation Zrotation
											End Site
											{
												OFFSET -1.082298 3.499527 0.457670
											}
										}
									}
								}
								JOINT LeftHandRing1
								{
									OFFSET 13.966164 -0.268127 -3.067488
									CHANNELS 3 Xrotation Yrotation Zrotation
									JOINT LeftHandRing2
									{
										OFFSET 3.162567 0.000000 0.000000
										CHANNELS 3 Xrotation Yrotation Zrotation
										JOINT LeftHandRing3
										{
											OFFSET 3.324348 0.000000 0.000000
											CHANNELS 3 Xrotation Yrotation Zrotation
											End Site
											{
												OFFSET -0.861900 3.184998 0.405154
											}
										}
									}
								}
								JOINT LeftHandPinky1
								{
									OFFSET 13.131393 -0.168503 -5.746925
									CHANNELS 3 Xrotation Yrotation Zrotation
									JOINT LeftHandPinky2
									{
										OFFSET 2.849182 0.000000 0.000000
										CHANNELS 3 Xrotation Yrotation Zrotation
										JOINT LeftHandPinky3
										{
											OFFSET 2.805038 0.000000 0.000000
											CHANNELS 3 Xrotation Yrotation Zrotation
											End Site
											{
												OFFSET -0.882500 2.642609 0.325652
											}
										}
									}
								}
							}
							JOINT Left_Sleeve
							{
								OFFSET 6.592125 -0.646545 0.805568
								CHANNELS 3 Xrotation Yrotation Zrotation
								End Site
								{
									OFFSET -0.000179 20.275787 -0.000000
								}
							}
						}
					}
				}
				JOINT RightShoulder
				{
					OFFSET -5.731700 15.108002 -2.763700
					CHANNELS 3 Xrotation Yrotation Zrotation
					JOINT RightArm
					{
						OFFSET -9.825497 2.506317 -1.597400
						CHANNELS 3 Xrotation Yrotation Zrotation
						JOINT RightForeArm
						{
							OFFSET -21.966242 0.000000 0.000000
							CHANNELS 3 Xrotation Yrotation Zrotation
							JOINT RightHand
							{
								OFFSET -33.879032 0.000000 0.000000
								CHANNELS 3 Xrotation Yrotation Zrotation
								JOINT RightHandThumb1
								{
									OFFSET -6.715286 -2.359680 3.363841
									CHANNELS 3 Xrotation Yrotation Zrotation
									JOINT RightHandThumb2
									{
										OFFSET -2.507072 -1.447464 1.447461
										CHANNELS 3 Xrotation Yrotation Zrotation
										JOINT RightHandThumb3
										{
											OFFSET -2.898338 -1.673355 1.673357
											CHANNELS 3 Xrotation Yrotation Zrotation
											End Site
											{
												OFFSET 0.295959 3.727692 -0.131651
											}
										}
									}
								}
								JOINT RightHandIndex1
								{
									OFFSET -14.190811 -0.254547 3.840278
									CHANNELS 3 Xrotation Yrotation Zrotation
									JOINT RightHandIndex2
									{
										OFFSET -3.551727 0.000000 -0.000000
										CHANNELS 3 Xrotation Yrotation Zrotation
										JOINT RightHandIndex3
										{
											OFFSET -2.894196 0.000000 0.000000
											CHANNELS 3 Xrotation Yrotation Zrotation
											End Site
											{
												OFFSET 1.000603 2.690872 0.366626
											}
										}
									}
								}
								JOINT RightHandMiddle1
								{
									OFFSET -13.776489 0.000000 0.000000
									CHANNELS 3 Xrotation Yrotation Zrotation
									JOINT RightHandMiddle2
									{
										OFFSET -3.438232 0.000000 0.000000
										CHANNELS 3 Xrotation Yrotation Zrotation
										JOINT RightHandMiddle3
										{
											OFFSET -3.691551 0.000000 0.000000
											CHANNELS 3 Xrotation Yrotation Zrotation
											End Site
											{
												OFFSET 1.082298 3.499527 0.457670
											}
										}
									}
								}
								JOINT RightHandRing1
								{
									OFFSET -13.966164 -0.268127 -3.067488
									CHANNELS 3 Xrotation Yrotation Zrotation
									JOINT RightHandRing2
									{
										OFFSET -3.162567 0.000000 0.000000
										CHANNELS 3 Xrotation Yrotation Zrotation
										JOINT RightHandRing3
										{
											OFFSET -3.324348 0.000000 0.000000
											CHANNELS 3 Xrotation Yrotation Zrotation
											End Site
											{
												OFFSET 0.861900 3.184998 0.405154
											}
										}
									}
								}
								JOINT RightHandPinky1
								{
									OFFSET -13.131393 -0.168503 -5.746925
									CHANNELS 3 Xrotation Yrotation Zrotation
									JOINT RightHandPinky2
									{
										OFFSET -2.849182 0.000000 0.000000
										CHANNELS 3 Xrotation Yrotation Zrotation
										JOINT RightHandPinky3
										{
											OFFSET -2.805038 0.000000 0.000000
											CHANNELS 3 Xrotation Yrotation Zrotation
											End Site
											{
												OFFSET 0.882500 2.642609 0.325652
											}
										}
									}
								}
							}
							JOINT Right_Sleeve
							{
								OFFSET -6.592125 -0.646545 0.805568
								CHANNELS 3 Xrotation Yrotation Zrotation
								End Site
								{
									OFFSET 0.000179 20.275787 -0.000000
								}
							}
						}
					}
				}
				JOINT Bind_Right_JacketString
				{
					OFFSET -3.534800 11.969597 7.200700
					CHANNELS 3 Xrotation Yrotation Zrotation
					JOINT Bind_Right_JacketString1
					{
						OFFSET -0.319900 -6.102600 2.794100
						CHANNELS 3 Xrotation Yrotation Zrotation
						End Site
						{
							OFFSET 0.000000 6.719452 0.000000
						}
					}
				}
				JOINT Bind_Left_JacketString
				{
					OFFSET 2.904800 11.969597 7.200700
					CHANNELS 3 Xrotation Yrotation Zrotation
					JOINT Bind_Left_JacketString1
					{
						OFFSET 0.364800 -5.904503 3.186800
						CHANNELS 3 Xrotation Yrotation Zrotation
						End Site
						{
							OFFSET 0.000000 6.719513 0.000000
						}
					}
				}
				JOINT HairE
				{
					OFFSET 5.915200 17.612701 -11.592200
					CHANNELS 3 Xrotation Yrotation Zrotation
					JOINT HairE1
					{
						OFFSET 0.289200 -7.171898 -1.284500
						CHANNELS 3 Xrotation Yrotation Zrotation
						End Site
						{
							OFFSET 0.000000 7.291756 0.000000
						}
					}
				}
				JOINT HairF
				{
					OFFSET -0.864800 17.612701 -11.592200
					CHANNELS 3 Xrotation Yrotation Zrotation
					JOINT HairF1
					{
						OFFSET 0.000000 -14.087097 -2.127501
						CHANNELS 3 Xrotation Yrotation Zrotation
						End Site
						{
							OFFSET 0.000000 14.246841 0.000000
						}
					}
				}
				JOINT HairG
				{
					OFFSET -8.087700 17.612701 -11.592200
					CHANNELS 3 Xrotation Yrotation Zrotation
					JOINT HairG1
					{
						OFFSET -0.293600 -6.081398 -0.910100
						CHANNELS 3 Xrotation Yrotation Zrotation
						End Site
						{
							OFFSET 0.000000 6.156120 0.000000
						}
					}
				}
			}
		}
	}
	JOINT Pouch
	{
		OFFSET 0.000000 4.394501 10.847300
		CHANNELS 3 Xrotation Yrotation Zrotation
		End Site
		{
			OFFSET 0.000000 21.880577 0.000000
		}
	}
	JOINT Bag
	{
		OFFSET -13.229000 4.813004 -0.593300
		CHANNELS 3 Xrotation Yrotation Zrotation
		End Site
		{
			OFFSET 0.000000 21.880577 0.000000
		}
	}
	JOINT OccupyGuyFacialAnim_Joint
	{
		OFFSET 1.000000 -70.206398 -1.655000
		CHANNELS 3 Xrotation Yrotation Zrotation
		End Site
		{
			OFFSET 0.000000 21.880577 0.000000
		}
	}
}
MOTION
Frames: 5
Frame Time: 0.033333
-11.485324 69.078712 102.231209 -2.794479 -32.713679 1.733035 -0.000000 -0.000003 -0.000000 -23.307380 -1.760920 10.189524 54.173960 -3.382311 0.325293 -6.891181 1.761073 -11.214699 0.000001 0.000001 0.000000 -0.000001 -0.000002 -0.000001 -6.382004 -4.404473 11.081563 26.494522 17.396750 1.894768 -7.578059 2.906154 -24.255380 0.000000 -0.000000 -0.000000 -0.000000 -0.000001 -0.000001 12.575405 -1.772770 -1.813738 -2.537449 -2.286710 1.368286 -2.458417 -2.032110 1.559612 10.657948 -12.565919 -3.181123 -11.172625 -16.499398 9.229620 0.000000 -0.000001 -0.000000 0.000000 -0.000001 -0.000000 0.000000 -0.000001 -0.000000 0.000000 -0.000001 -0.000000 0.000000 -0.000001 -0.000000 0.000000 -0.000001 -0.000000 0.000000 -0.000001 -0.000000 0.000000 -0.000001 -0.000000 0.000000 -0.000001 -0.000000 3.055669 9.772729 -6.991576 -0.092727 -6.871609 -69.396211 23.539192 -8.791430 -10.185024 0.085784 -2.197709 11.764109 -6.699517 15.512429 16.651916 0.051836 0.044511 -0.010948 -0.000002 0.000001 -0.000001 0.311984 1.706411 -10.417311 -0.047783 0.042910 -7.113419 0.000000 0.000002 -0.000002 -0.452832 -0.681363 -14.075003 -0.002723 -0.001346 -9.550762 0.000000 0.000000 0.000001 -1.598777 -3.405068 -19.166494 -0.001219 0.003486 -12.973572 -0.000001 0.000002 -0.000001 -3.385947 -6.306396 -23.976249 -0.006122 -0.005050 -16.154574 -0.000001 -0.000001 0.000001 0.000000 0.000000 -0.000000 3.184557 5.115019 -0.088981 -6.506689 22.329227 73.440475 10.574314 20.907178 0.510967 -27.374466 -0.167325 -17.834396 -2.902141 -16.297079 -11.945348 0.001777 -0.009250 0.027690 0.000002 0.000000 -0.000000 4.310873 -5.303403 32.986849 -0.034385 -0.056946 22.262860 -0.000001 0.000002 -0.000001 0.596556 -2.121231 32.541644 -0.003011 0.004583 22.071316 -0.000001 -0.000002 -0.000001 -1.868983 1.390390 36.645642 0.004285 -0.003030 24.847588 -0.000002 -0.000001 0.000001 -4.894189 5.146843 41.015071 -0.002089 -0.003447 27.697959 0.000005 0.000003 0.000001 -0.000000 0.000000 -0.000000 -0.000000 -0.000000 -0.000000 -0.000000 0.000001 -0.000000 -0.000000 -0.000000 -0.000000 -0.000000 -0.000000 -0.000000 -0.000000 -0.000000 -0.000000 -0.000000 0.000001 -0.000000 -0.000000 -0.000000 -0.000000 -0.000000 -0.000000 -0.000000 -0.000000 -0.000000 -0.000000 -0.000000 0.000001 -0.000000 -0.000000 -0.000003 -0.000000 -0.000000 -0.000003 -0.000000 -0.000000 -0.000003 -0.000000 
-12.496235 69.275085 104.228203 -2.708101 -38.016741 1.916302 0.000000 0.000001 0.000000 -22.101198 -3.763970 9.216748 43.814130 -5.846872 0.219761 -10.539698 3.504820 -13.380594 0.000001 0.000000 -0.000000 0.000002 -0.000004 -0.000001 -4.011123 -0.726980 10.460590 25.531300 21.099131 2.097024 -7.756274 1.957979 -24.297520 0.000000 0.000001 0.000000 0.000002 -0.000002 -0.000002 12.645225 -1.267661 -1.622862 -2.497522 -1.632399 0.798275 -2.443439 -1.446870 0.935086 9.872310 -12.906599 -3.321684 -10.308076 -16.820637 9.344384 -0.000000 0.000000 -0.000000 -0.000000 0.000000 -0.000000 -0.000000 0.000000 -0.000000 -0.000000 0.000000 -0.000000 -0.000000 0.000000 -0.000000 -0.000000 0.000000 -0.000000 -0.000000 0.000000 -0.000000 -0.000000 0.000000 -0.000000 -0.000000 0.000000 -0.000000 2.977312 10.352475 -6.187303 2.119354 -5.357223 -70.729566 21.401471 -8.429326 -10.920815 0.052479 -1.870480 12.597819 -6.690606 15.502100 16.623934 0.047703 0.038218 -0.013135 0.000000 -0.000001 -0.000003 0.055292 0.726633 -8.828000 -0.048573 0.041761 -6.041177 0.000002 0.000001 -0.000003 -0.529960 -1.315456 -12.924378 -0.003864 -0.001513 -8.768517 0.000003 0.000001 -0.000001 -1.610628 -3.800993 -18.218915 -0.000106 0.003387 -12.327429 -0.000001 0.000001 -0.000002 -3.325694 -6.446765 -23.212514 -0.007256 -0.005208 -15.636193 -0.000002 0.000001 -0.000000 0.000001 0.000000 0.000001 3.186381 4.518602 1.016557 -8.124191 21.784950 73.257795 10.999682 20.775152 0.319110 -27.701690 0.064551 -17.442947 -2.901898 -16.297110 -11.944441 -0.001054 -0.013320 0.028836 0.000000 -0.000001 0.000003 4.045718 -5.413754 30.909229 -0.035793 -0.055803 20.857832 -0.000000 -0.000000 0.000002 0.665631 -2.383573 30.649395 -0.002949 0.005102 20.786984 0.000004 -0.000001 0.000001 -1.514615 0.886690 34.685080 0.005292 -0.002567 23.525398 -0.000001 -0.000000 -0.000001 -4.200589 4.412771 38.979814 -0.002216 -0.002543 26.349866 -0.000001 0.000002 -0.000003 -0.000000 -0.000001 0.000000 -0.000000 -0.000001 -0.000000 -0.000000 0.000000 -0.000000 -0.000000 -0.000001 -0.000000 -0.000000 -0.000001 -0.000000 -0.000000 -0.000001 -0.000000 -0.000000 0.000000 -0.000000 -0.000000 -0.000001 -0.000000 -0.000000 -0.000001 -0.000000 -0.000000 -0.000001 -0.000000 -0.000000 0.000000 -0.000000 0.000000 0.000001 0.000000 0.000000 0.000001 0.000000 0.000000 0.000001 0.000000 
-13.535042 69.415558 106.142342 -2.262275 -43.051481 2.140809 -0.000000 -0.000000 -0.000000 -21.311102 -4.619080 8.318984 33.273861 -7.305669 0.167121 -13.826890 4.512550 -12.293246 -0.000000 -0.000001 0.000000 -0.000003 -0.000001 -0.000003 -1.878790 2.711840 9.719667 24.294635 25.087841 2.275339 -7.799841 0.602483 -24.351813 -0.000000 -0.000001 0.000000 -0.000000 0.000000 0.000000 12.510278 -0.837226 -1.008012 -2.454325 -1.027156 0.004389 -2.424466 -0.935880 0.089470 8.919000 -12.999514 -2.750144 -9.781821 -16.596779 8.931339 0.000000 -0.000001 0.000000 0.000000 -0.000001 0.000000 0.000000 -0.000001 0.000000 0.000000 -0.000001 0.000000 0.000000 0.000001 -0.000000 0.000000 -0.000001 0.000000 0.000000 0.000001 -0.000000 0.000000 -0.000001 0.000000 0.000000 -0.000001 0.000000 2.784752 10.387266 -4.697423 4.402297 -4.127278 -72.323726 18.385524 -8.549917 -11.493007 -0.056118 -0.987710 13.119543 -6.677481 15.486778 16.582610 0.043479 0.031869 -0.015185 -0.000003 -0.000003 -0.000003 -0.139952 -0.312746 -7.286272 -0.049334 0.040674 -4.996964 -0.000000 0.000001 -0.000000 -0.582542 -1.984085 -11.806232 -0.004948 -0.001634 -8.007994 -0.000005 -0.000001 0.000001 -1.613633 -4.217660 -17.299039 0.001135 0.003612 -11.700269 0.000001 0.000000 -0.000001 -3.266544 -6.592928 -22.473042 -0.008367 -0.005826 -15.134188 -0.000000 -0.000001 0.000003 0.000001 -0.000001 0.000000 3.215848 3.878464 2.336514 -9.743703 21.157346 73.021600 11.293794 20.627801 0.209993 -27.986287 0.363208 -17.116437 -2.901747 -16.296773 -11.943651 -0.002732 -0.019374 0.029285 -0.000004 0.000000 0.000003 3.735383 -5.507732 28.543038 -0.037353 -0.054448 19.258750 -0.000002 0.000001 0.000004 0.715100 -2.671757 28.458309 -0.002935 0.005533 19.300067 0.000000 -0.000001 -0.000003 -1.165717 0.313761 32.379557 0.006656 -0.002270 21.968040 -0.000002 -0.000001 -0.000003 -3.492965 3.569670 36.550955 -0.002368 -0.002063 24.733029 0.000000 -0.000000 0.000000 -0.000000 0.000002 -0.000001 -0.000000 -0.000002 -0.000000 -0.000000 0.000001 0.000000 -0.000000 -0.000002 -0.000000 -0.000000 -0.000002 -0.000000 -0.000000 -0.000002 -0.000000 -0.000000 0.000001 0.000000 -0.000000 -0.000002 -0.000000 -0.000000 -0.000002 -0.000000 -0.000000 -0.000002 -0.000000 -0.000000 0.000001 0.000000 -0.000000 -0.000000 -0.000000 -0.000000 -0.000000 -0.000000 -0.000000 -0.000000 -0.000000 
-14.612701 69.502350 107.996590 -1.594188 -47.702068 2.393219 0.000000 0.000002 -0.000000 -21.882314 -2.886691 7.730959 24.332248 -10.517073 -0.015743 -13.950154 4.701977 -11.685993 -0.000001 -0.000003 -0.000000 -0.000001 0.000001 0.000000 0.296399 5.146994 8.794556 22.929198 29.187639 2.258888 -7.749489 -0.430569 -24.364635 -0.000000 0.000000 -0.000000 -0.000000 -0.000000 -0.000002 12.314378 -0.541879 -0.307222 -2.383135 -0.589425 -0.692837 -2.375443 -0.581129 -0.645428 7.901978 -12.781271 -2.020968 -9.458723 -15.979004 8.314346 0.000001 0.000001 0.000000 0.000001 0.000001 0.000000 0.000001 0.000001 0.000000 0.000001 0.000001 0.000000 0.000000 0.000001 -0.000000 0.000001 0.000001 0.000000 0.000000 0.000001 -0.000000 0.000001 0.000001 0.000000 0.000001 0.000001 0.000000 2.584761 10.066294 -3.143477 6.135724 -3.209017 -73.966734 16.019111 -8.643699 -11.936383 -0.215547 0.286528 13.143334 -6.660290 15.466741 16.528474 0.039221 0.025698 -0.017104 0.000003 0.000005 -0.000000 -0.267944 -1.395389 -5.833919 -0.050026 0.039594 -4.010255 -0.000000 -0.000000 -0.000000 -0.609479 -2.678702 -10.752015 -0.005919 -0.001671 -7.290985 -0.000000 0.000001 -0.000003 -1.608649 -4.649776 -16.433643 0.002380 0.003256 -11.110284 -0.000003 0.000000 -0.000001 -3.210819 -6.743169 -21.779494 -0.009471 -0.006721 -14.663443 0.000002 -0.000000 0.000001 0.000000 0.000001 0.000001 3.257886 3.410472 3.283431 -11.257446 20.629967 72.946386 11.783045 20.527912 -0.052805 -28.280422 0.668510 -16.777234 -2.901604 -16.296353 -11.942833 -0.003924 -0.025896 0.029310 0.000002 -0.000001 0.000002 3.394649 -5.564277 26.014415 -0.038935 -0.052940 17.551392 0.000000 -0.000001 -0.000002 0.733289 -2.961923 26.091724 -0.002848 0.006050 17.694505 0.000001 0.000001 -0.000001 -0.858433 -0.294043 29.864971 0.008411 -0.001925 20.267453 -0.000000 -0.000005 -0.000005 -2.838199 2.657708 33.878281 -0.002592 -0.001484 22.946272 -0.000002 0.000003 -0.000001 -0.000000 0.000001 -0.000001 -0.000000 -0.000001 -0.000000 0.000000 -0.000001 -0.000000 -0.000000 -0.000001 -0.000000 -0.000000 -0.000001 -0.000000 -0.000000 -0.000001 -0.000000 0.000000 -0.000001 -0.000000 -0.000000 -0.000001 -0.000000 -0.000000 -0.000001 -0.000000 -0.000000 -0.000001 -0.000000 0.000000 -0.000001 -0.000000 0.000000 0.000002 -0.000000 0.000000 0.000002 -0.000000 0.000000 0.000002 -0.000000 
-15.762182 69.546234 109.809509 -0.958784 -51.486208 2.558842 0.000000 0.000001 0.000000 -24.239071 2.017055 7.442250 18.036129 -17.055322 -0.453404 -12.201851 4.185523 -14.233692 -0.000002 -0.000000 -0.000001 -0.000001 0.000000 -0.000001 2.795302 5.127425 7.569762 21.737410 33.417831 1.952756 -7.773612 -0.449489 -24.562532 -0.000000 0.000001 -0.000000 -0.000001 -0.000001 -0.000000 12.256484 -0.561382 -0.211678 -2.260685 -0.637466 -0.569220 -2.258769 -0.622057 -0.518234 6.891905 -12.379781 -1.235122 -9.239997 -15.136106 7.607274 -0.000000 -0.000000 0.000000 -0.000000 -0.000000 0.000000 -0.000000 -0.000000 0.000000 -0.000000 -0.000000 -0.000000 -0.000001 -0.000000 -0.000000 -0.000000 -0.000000 -0.000000 -0.000001 -0.000000 -0.000000 -0.000000 -0.000000 0.000000 -0.000000 -0.000000 0.000000 2.600158 9.791408 -3.255526 6.256771 -2.600198 -74.551720 15.565113 -6.751671 -12.616588 -0.234697 0.439228 12.725296 -6.639255 15.442120 16.462173 0.035052 0.019788 -0.018880 -0.000002 -0.000002 -0.000002 -0.327741 -2.504654 -4.512185 -0.050631 0.038633 -3.110460 0.000002 0.000001 -0.000002 -0.612110 -3.390266 -9.793366 -0.006706 -0.001607 -6.639381 0.000001 0.000001 -0.000001 -1.597529 -5.092228 -15.649249 0.003516 0.001866 -10.575733 0.000002 0.000001 -0.000001 -3.160984 -6.895670 -21.154088 -0.010522 -0.007461 -14.238749 -0.000002 -0.000001 0.000001 0.000003 -0.000000 0.000001 3.256786 3.452926 2.958857 -12.529829 20.331305 73.349832 12.945594 20.556959 -0.828992 -28.642292 0.923279 -16.330588 -2.901436 -16.296082 -11.942205 -0.004717 -0.032686 0.029019 -0.000001 -0.000003 0.000003 3.041191 -5.565112 23.449786 -0.040491 -0.051411 15.821189 -0.000000 0.000001 0.000002 0.717096 -3.226679 23.672841 -0.002790 0.006575 16.053981 0.000002 -0.000001 0.000001 -0.617314 -0.894721 27.276381 0.010465 -0.001586 18.515249 0.000001 -0.000000 0.000005 -2.285165 1.731247 31.108937 -0.002706 -0.000933 21.088624 -0.000001 0.000005 0.000001 0.000000 -0.000000 0.000000 -0.000000 -0.000001 0.000000 -0.000000 -0.000001 0.000000 -0.000000 -0.000001 0.000000 -0.000000 -0.000001 0.000000 -0.000000 -0.000001 0.000000 -0.000000 -0.000001 0.000000 -0.000000 -0.000001 0.000000 -0.000000 -0.000001 0.000000 -0.000000 -0.000001 0.000000 -0.000000 -0.000001 0.000000 0.000000 0.000001 0.000000 0.000000 0.000001 0.000000 0.000000 0.000001 0.000000 
